<svg xmlns="http://www.w3.org/2000/svg" viewBox="0 0 96 96">
  <defs>
    <linearGradient id="bg" x1="0" y1="0" x2="1" y2="1">
      <stop offset="0%" stop-color="#1e293b"/>
      <stop offset="100%" stop-color="#0f172a"/>
    </linearGradient>
    <linearGradient id="fg" x1="0" y1="0" x2="1" y2="1">
      <stop offset="0%" stop-color="#38bdf8"/>
      <stop offset="100%" stop-color="#a78bfa"/>
    </linearGradient>
  </defs>
  <rect width="96" height="96" rx="18" fill="url(#bg)"/>
  <text x="48" y="36" text-anchor="middle" font-family="ui-monospace, monospace" font-size="14" font-weight="700" fill="url(#fg)">Basic</text>
  <g font-family="ui-monospace, monospace" font-size="11" font-weight="700" fill="url(#fg)">
    <rect x="14" y="46" width="14" height="12" rx="3" fill="url(#fg)" opacity="0.2"/>
    <text x="21" y="55" text-anchor="middle">7</text>
    <rect x="32" y="46" width="14" height="12" rx="3" fill="url(#fg)" opacity="0.2"/>
    <text x="39" y="55" text-anchor="middle">8</text>
    <rect x="50" y="46" width="14" height="12" rx="3" fill="url(#fg)" opacity="0.2"/>
    <text x="57" y="55" text-anchor="middle">9</text>
    <rect x="68" y="46" width="14" height="12" rx="3" fill="url(#fg)" opacity="0.2"/>
    <text x="75" y="55" text-anchor="middle">+</text>
    <rect x="14" y="62" width="14" height="12" rx="3" fill="url(#fg)" opacity="0.2"/>
    <text x="21" y="71" text-anchor="middle">4</text>
    <rect x="32" y="62" width="14" height="12" rx="3" fill="url(#fg)" opacity="0.2"/>
    <text x="39" y="71" text-anchor="middle">5</text>
    <rect x="50" y="62" width="14" height="12" rx="3" fill="url(#fg)" opacity="0.2"/>
    <text x="57" y="71" text-anchor="middle">6</text>
    <rect x="68" y="62" width="14" height="12" rx="3" fill="url(#fg)" opacity="0.2"/>
    <text x="75" y="71" text-anchor="middle">−</text>
    <rect x="14" y="78" width="32" height="8" rx="3" fill="url(#fg)" opacity="0.3"/>
  </g>
</svg>
